<svg fill="none" height="285" viewBox="0 0 285 285" width="285" xmlns="http://www.w3.org/2000/svg"><rect fill="#fff" height="285" rx="50" width="285"/><g fill="#060001"><path d="m183.405 64h-10.8c-.332 0-.6.2679-.6.5999v5.4001 12 12 12 9c0 1.657-1.344 3-3 3h-8.999-9.699-2.3-11.413c-.331 0-.6.268-.6.6v10.8c0 .332.269.6.6.6h11.413 2.3 9.699 11.999 6c3.313 0 6-2.687 6-6v-6-12-12-12-12-5.4001c0-.332-.268-.5999-.6-.5999z"/><path d="m261.4 118h-5.4-11.999-11.999-12-8.999c-1.657 0-3-1.343-3-3v-9-12-6-5.4001c0-.332-.268-.5999-.6-.5999h-10.799c-.332 0-.6.2679-.6.5999v5.4001 6 12 12 6c0 3.313 2.686 6 5.999 6h6 11.999 12 11.999 11.999 5.4c.332 0 .6-.268.6-.6v-10.8c0-.332-.268-.6-.6-.6z"/><path d="m69.9945 118h1.4533 10.562 11.9993 11.9989 12 5.401c.33 0 .598.268.598.6v10.8c0 .331-.268.6-.598.6h-5.401-12-11.9989-11.9993-10.562-1.4373-.0133c-19.7042 0-35.7006 15.835-35.9846 35.472v.528h-.0133v12h.0133v12 12 5.4c0 .331-.2679.6-.5986.6h-10.8007c-.3306 0-.6-.269-.6-.6v-5.4-12-12h-.0133v-12h.0133v-.521c.0427-3.959.5547-7.805 1.5-11.479 1.0959-4.26 2.7745-8.284 4.925-12 1.6026-2.769 3.4705-5.364 5.5743-7.748 1.3293-1.504 2.7492-2.924 4.2544-4.252 2.3839-2.102 4.9771-3.969 7.7449-5.57 3.7158-2.15 7.7396-3.826 11.9993-4.92 3.8305-.986 7.8449-1.51 11.9833-1.51h.016z"/><path d="m243.401 142h-5.386-.014-5.986-11.999-12-5.999c-3.313 0-6 2.687-6 6v6 12 12 12 12 5.4c0 .332.268.6.6.6h10.799c.331 0 .6-.268.6-.6v-5.4-12-12-12-9.132c.071-1.595 1.375-2.868 2.987-2.868h9.013 11.999 5.986.014 5.386c.332 0 .6-.268.6-.6v-10.8c0-.332-.268-.6-.6-.6z"/><path d="m177.992 142h-6-11.999-12-11.999-11.999-5.4c-.331 0-.6.268-.6.6v10.8c0 .332.269.6.6.6h5.4 11.999 11.999 12 9.012c1.611 0 2.916 1.273 2.987 2.867v9.133 12 6 5.4c0 .332.269.6.6.6h10.799c.331 0 .6-.268.6-.6v-5.4-6-12-12-6c0-3.313-2.686-6-5.999-6z"/><path d="m57.9986 187.814v-9.815-12c0-6.625 5.369-11.996 11.9953-11.998h.004l11.9993-.002h11.9993 11.3995c.332 0 .6-.268.6-.598v-10.802c0-.33-.268-.6-.6-.6h-11.3995-11.9993-11.9993c-4.3731 0-8.4689 1.176-11.9993 3.22-3.6398 2.107-6.6743 5.14-8.7809 8.782-2.0438 3.53-3.2184 7.626-3.2184 12v11.998 9.815l.0133 2.187c0 4.372 1.1759 8.468 3.2185 12 2.1039 3.636 5.133 6.666 8.7675 8.773.004.003.0093.005.0133.008 3.5265 2.04 7.6182 3.215 11.986 3.217v.002h.0133c-.0013 0-.0026 0-.004-.002h11.99 11.9993 11.3995c.332 0 .6-.268.6-.598v-10.802c0-.33-.268-.6-.6-.6h-11.3995-11.9993-11.9993c-6.6263 0-11.9993-5.372-11.9993-12v.002z"/></g></svg>