<svg fill="none" height="151" viewBox="0 0 241 151" width="241" xmlns="http://www.w3.org/2000/svg"><g fill="#f9f9f9"><path d="m162.129.0573711h-10.8c-.332 0-.6.2679349-.6.5999349v5.400064 12.00003 12 12 9c0 1.6573-1.344 3-3 3h-9-9.7-2.3-11.414c-.33 0-.6.2679-.6.5999v10.8001c0 .332.27.6.6.6h11.414 2.3 9.7 12 6c3.313 0 6-2.6867 6-6v-6-12-12-12-12.00003-5.400064c0-.332-.268-.5999349-.6-.5999349z"/><path d="m240.129 54.0574h-5.4-12-12-12-9c-1.658 0-3-1.3427-3-3v-9-12-6-5.4001c0-.332-.268-.5999-.6-.5999h-10.8c-.332 0-.6.2679-.6.5999v5.4001 6 12 12 6c0 3.3133 2.686 6 6 6h6 12 12 12 12 5.4c.332 0 .6-.268.6-.6v-10.8001c0-.332-.268-.5999-.6-.5999z"/><path d="m48.7119 54.0576h1.4533 10.5627 12 12 12 5.4011c.331 0 .599.268.599.6v10.8c0 .3307-.268.6-.599.6h-5.4011-12-12-12-10.5627-1.4373-.0134c-19.7053 0-35.7026 15.8347-35.9866 35.4724v.528h-.0134v12h.0134v12 12 5.4c0 .33-.268.6-.5986.6h-10.8014c-.330665 0-.600015-.27-.600015-.6v-5.4-12-12h-.013346v-12h.013346v-.522c.042667-3.9584.554665-7.8051 1.499995-11.4784 1.096-4.26 2.77471-8.284 4.92538-12 1.60267-2.7693 3.47064-5.364 5.57464-7.748 1.3293-1.504 2.7493-2.924 4.2546-4.252 2.384-2.1027 4.9774-3.9694 7.7454-5.5707 3.716-2.1493 7.74-3.8253 12-4.92 3.8306-.9853 7.8453-1.5093 11.984-1.5093h.016z"/><path d="m222.129 78.0574h-5.387-.013-5.987-12-12-6c-3.313 0-6 2.6867-6 6v6 11.9996 12 12 12 5.4c0 .332.268.6.6.6h10.8c.331 0 .6-.268.6-.6v-5.4-12-12-12-9.1317c.071-1.5946 1.375-2.8679 2.987-2.8679h9.013 12 5.987.013 5.387c.332 0 .6-.268.6-.6v-10.8c0-.332-.268-.6-.6-.6z"/><path d="m156.715 78.0574h-6-12-12-12-12-5.3998c-.3306 0-.6.268-.6.6v10.8c0 .332.2694.6.6.6h5.3998 12 12 12 9.014c1.61 0 2.916 1.2733 2.986 2.8666v9.133 12 6 5.4c0 .332.27.6.6.6h10.8c.331 0 .6-.268.6-.6v-5.4-6-12-11.9996-6c0-3.3133-2.686-6-6-6z"/><path d="m36.7152 123.871v-9.814-12c0-6.6255 5.3694-11.9962 11.996-11.9989h.004l12-.0013h12 11.4001c.332 0 .5999-.2679.5999-.5986v-10.8014c0-.3306-.2679-.6-.5999-.6h-11.4001-12-12c-4.3733 0-8.4693 1.176-12 3.22-3.64 2.1067-6.6747 5.14-8.7813 8.7813-2.044 3.5307-3.2187 7.6267-3.2187 11.9999v11.999 9.814l.0134 2.187c0 4.372 1.176 8.468 3.2186 12 2.104 3.636 5.1333 6.667 8.768 8.773.004.003.0094.006.0134.008 3.5266 2.04 7.6186 3.215 11.9866 3.218v.001h.0134c-.0014 0-.0027 0-.004-.001h11.9906 12 11.4001c.332 0 .5999-.268.5999-.599v-10.801c0-.331-.2679-.6-.5999-.6h-11.4001-12-12c-6.6267 0-12-5.372-12-12v.001z"/></g></svg>