<svg width="760" height="156" viewBox="0 0 760 156" fill="none" xmlns="http://www.w3.org/2000/svg">
<path d="M162.129 0.0573711H151.329C150.997 0.0573711 150.729 0.325306 150.729 0.657306V6.05737V18.0574V30.0574V42.0574V51.0574C150.729 52.7147 149.385 54.0574 147.729 54.0574H138.729H129.029H126.729H115.315C114.985 54.0574 114.715 54.3253 114.715 54.6573V65.4574C114.715 65.7894 114.985 66.0574 115.315 66.0574H126.729H129.029H138.729H150.729H156.729C160.042 66.0574 162.729 63.3707 162.729 60.0574V54.0574V42.0574V30.0574V18.0574V6.05737V0.657306C162.729 0.325306 162.461 0.0573711 162.129 0.0573711Z" fill="#fff"/>
<path d="M240.129 54.0574H234.729H222.729H210.729H198.729H189.729C188.071 54.0574 186.729 52.7147 186.729 51.0574V42.0574V30.0574V24.0574V18.6573C186.729 18.3253 186.461 18.0574 186.129 18.0574H175.329C174.997 18.0574 174.729 18.3253 174.729 18.6573V24.0574V30.0574V42.0574V54.0574V60.0574C174.729 63.3707 177.415 66.0574 180.729 66.0574H186.729H198.729H210.729H222.729H234.729H240.129C240.461 66.0574 240.729 65.7894 240.729 65.4574V54.6573C240.729 54.3253 240.461 54.0574 240.129 54.0574Z" fill="#fff"/>
<path d="M48.7119 54.0576H50.1652H60.7279H72.7279H84.7279H96.7279H102.129C102.46 54.0576 102.728 54.3256 102.728 54.6576V65.4576C102.728 65.7883 102.46 66.0576 102.129 66.0576H96.7279H84.7279H72.7279H60.7279H50.1652H48.7279H48.7145C29.0092 66.0576 13.0119 81.8923 12.7279 101.53V102.058H12.7145V114.058H12.7279V126.058V138.058V143.458C12.7279 143.788 12.4599 144.058 12.1293 144.058H1.3279C0.997235 144.058 0.727885 143.788 0.727885 143.458V138.058V126.058V114.058H0.714539V102.058H0.727885V101.536C0.770552 97.5776 1.28255 93.7309 2.22788 90.0576C3.32388 85.7976 5.00259 81.7736 7.15326 78.0576C8.75593 75.2883 10.6239 72.6936 12.7279 70.3096C14.0572 68.8056 15.4772 67.3856 16.9825 66.0576C19.3665 63.9549 21.9599 62.0882 24.7279 60.4869C28.4439 58.3376 32.4679 56.6616 36.7279 55.5669C40.5585 54.5816 44.5732 54.0576 48.7119 54.0576H48.7279Z" fill="#fff"/>
<path d="M222.129 78.0574H216.742H216.729H210.742H198.742H186.742H180.742C177.429 78.0574 174.742 80.7441 174.742 84.0574V90.0574V102.057V114.057V126.057V138.057V143.457C174.742 143.789 175.01 144.057 175.342 144.057H186.142C186.473 144.057 186.742 143.789 186.742 143.457V138.057V126.057V114.057V102.057V92.9253C186.813 91.3307 188.117 90.0574 189.729 90.0574H198.742H210.742H216.729H216.742H222.129C222.461 90.0574 222.729 89.7894 222.729 89.4574V78.6574C222.729 78.3254 222.461 78.0574 222.129 78.0574Z" fill="#fff"/>
<path d="M156.715 78.0574H150.715H138.715H126.715H114.715H102.715H97.3152C96.9846 78.0574 96.7152 78.3254 96.7152 78.6574V89.4574C96.7152 89.7894 96.9846 90.0574 97.3152 90.0574H102.715H114.715H126.715H138.715H147.729C149.339 90.0574 150.645 91.3307 150.715 92.924V102.057V114.057V120.057V125.457C150.715 125.789 150.985 126.057 151.315 126.057H162.115C162.446 126.057 162.715 125.789 162.715 125.457V120.057V114.057V102.057V90.0574V84.0574C162.715 80.7441 160.029 78.0574 156.715 78.0574Z" fill="#fff"/>
<path d="M36.7152 123.871V114.057V102.057C36.7152 95.4315 42.0846 90.0608 48.7112 90.0581H48.7152L60.7152 90.0568H72.7152H84.1153C84.4473 90.0568 84.7152 89.7889 84.7152 89.4582V78.6568C84.7152 78.3262 84.4473 78.0568 84.1153 78.0568H72.7152H60.7152H48.7152C44.3419 78.0568 40.2459 79.2328 36.7152 81.2768C33.0752 83.3835 30.0405 86.4168 27.9339 90.0581C25.8899 93.5888 24.7152 97.6848 24.7152 102.058V114.057V123.871L24.7286 126.058C24.7286 130.43 25.9046 134.526 27.9472 138.058C30.0512 141.694 33.0805 144.725 36.7152 146.831C36.7192 146.834 36.7246 146.837 36.7286 146.839C40.2552 148.879 44.3472 150.054 48.7152 150.057V150.058H48.7286C48.7272 150.058 48.7259 150.058 48.7246 150.057H60.7152H72.7152H84.1153C84.4473 150.057 84.7152 149.789 84.7152 149.458V138.657C84.7152 138.326 84.4473 138.057 84.1153 138.057H72.7152H60.7152H48.7152C42.0885 138.057 36.7152 132.685 36.7152 126.057V126.058V123.871Z" fill="#fff"/>
<path d="M277.831 63.9163C273.635 61.4136 270.403 57.8576 268.134 53.2483C265.863 48.6403 264.729 43.1722 264.729 36.8442V36.8029C264.729 30.4762 265.87 25.0149 268.154 20.4203C270.437 15.8256 273.67 12.2843 277.851 9.79362C282.033 7.30429 286.971 6.05892 292.667 6.05892C297.234 6.05892 301.326 6.93895 304.943 8.70028C308.562 10.4603 311.513 12.8949 313.797 16.0042C316.079 19.1136 317.482 22.6896 318.005 26.7336L318.047 27.147H307.606L307.399 26.363C306.822 24.079 305.873 22.1123 304.553 20.4616C303.231 18.8109 301.566 17.531 299.558 16.623C297.55 15.715 295.253 15.2616 292.667 15.2616C289.201 15.2616 286.189 16.1416 283.63 17.9029C281.071 19.6642 279.09 22.1469 277.687 25.3509C276.283 28.5562 275.582 32.3736 275.582 36.8029V36.8442C275.582 41.2469 276.283 45.0643 277.687 48.2963C279.09 51.5296 281.078 54.0323 283.65 55.807C286.222 57.5816 289.227 58.4696 292.667 58.4696C295.198 58.4696 297.461 58.0216 299.455 57.127C301.45 56.2336 303.135 54.9336 304.511 53.2283C305.886 51.5229 306.89 49.4456 307.523 46.9963L307.647 46.5829H318.087L318.005 47.0376C317.51 51.0816 316.121 54.6589 313.837 57.7669C311.554 60.8763 308.597 63.3043 304.965 65.0509C301.333 66.7976 297.234 67.6709 292.667 67.6709C286.971 67.6709 282.026 66.4203 277.831 63.9163Z" fill="#fff"/>
<path d="M350.154 57.5197C351.748 56.3917 352.98 54.7478 353.847 52.5878C354.714 50.4291 355.147 47.8224 355.147 44.7678V44.6851C355.147 41.6598 354.707 39.0731 353.826 36.9265C352.946 34.7811 351.702 33.1451 350.092 32.0157C348.483 30.8877 346.591 30.3238 344.418 30.3238C342.298 30.3238 340.435 30.8877 338.826 32.0157C337.216 33.1451 335.963 34.7811 335.07 36.9265C334.176 39.0731 333.73 41.6598 333.73 44.6851V44.7678C333.73 47.8224 334.176 50.4291 335.07 52.5878C335.963 54.7478 337.216 56.3917 338.826 57.5197C340.435 58.6477 342.326 59.2118 344.5 59.2118C346.672 59.2118 348.558 58.6477 350.154 57.5197ZM333.275 64.7624C330.111 62.9331 327.655 60.3198 325.908 56.9211C324.162 53.5238 323.288 49.4731 323.288 44.7678V44.6851C323.288 40.0091 324.168 35.9718 325.93 32.5731C327.69 29.1758 330.152 26.5625 333.316 24.7318C336.48 22.9025 340.18 21.9878 344.418 21.9878C348.682 21.9878 352.403 22.9025 355.58 24.7318C358.758 26.5625 361.227 29.1691 362.987 32.5531C364.748 35.9371 365.628 39.9811 365.628 44.6851V44.7678C365.628 49.4998 364.755 53.5651 363.008 56.9624C361.262 60.3611 358.806 62.9664 355.642 64.7824C352.478 66.5984 348.751 67.5065 344.459 67.5065C340.167 67.5065 336.438 66.5917 333.275 64.7624Z" fill="#fff"/>
<path d="M372.191 22.8962H382.425V29.7468H382.672C383.8 27.3802 385.485 25.4961 387.728 24.0921C389.969 22.6895 392.741 21.9881 396.043 21.9881C400.857 21.9881 404.579 23.4468 407.207 26.3628C409.833 29.2788 411.147 33.2681 411.147 38.3294V66.6401H400.872V40.3935C400.872 37.2855 400.143 34.8841 398.684 33.1921C397.225 31.5001 395.039 30.6548 392.123 30.6548C390.169 30.6548 388.464 31.1015 387.005 31.9948C385.547 32.8895 384.419 34.1281 383.621 35.7095C382.824 37.2921 382.425 39.1415 382.425 41.2602V66.6401H372.191V22.8962Z" fill="#fff"/>
<path d="M425.447 64.5351C423.232 62.5537 422.124 59.3084 422.124 54.7964V30.8191H415.935V22.8964H422.124V11.7951H432.565V22.8964H440.696V30.8191H432.565V53.971C432.565 56.0897 433.04 57.5551 433.989 58.3657C434.939 59.1777 436.335 59.5831 438.177 59.5831C438.7 59.5831 439.161 59.5631 439.56 59.5217C439.959 59.4804 440.337 59.4457 440.696 59.4177V67.1351C440.089 67.2178 439.355 67.3004 438.488 67.3831C437.62 67.4657 436.651 67.5071 435.579 67.5071C431.039 67.5071 427.661 66.5164 425.447 64.5351Z" fill="#fff"/>
<path d="M454.788 64.7415C451.637 62.8988 449.223 60.2841 447.545 56.9001C445.867 53.5175 445.028 49.5135 445.028 44.8922V44.8508C445.028 40.2562 445.873 36.2455 447.565 32.8215C449.259 29.3961 451.637 26.7334 454.705 24.8361C457.772 22.9374 461.397 21.9881 465.579 21.9881C469.735 21.9881 473.331 22.9028 476.372 24.7321C479.411 26.5628 481.749 29.1281 483.388 32.4294C485.023 35.7308 485.841 39.5828 485.841 43.9841V47.2855H450.104V40.4348H480.932L475.979 46.8308V42.8695C475.979 40.0081 475.539 37.6281 474.659 35.7308C473.779 33.8321 472.568 32.4082 471.025 31.4588C469.487 30.5095 467.711 30.0348 465.704 30.0348C463.667 30.0348 461.859 30.5242 460.276 31.5002C458.695 32.4775 457.456 33.9281 456.563 35.8534C455.668 37.7801 455.221 40.1188 455.221 42.8695V46.8308C455.221 49.5001 455.668 51.7775 456.563 53.6615C457.456 55.5455 458.729 56.9908 460.38 57.9948C462.031 58.9988 463.997 59.5002 466.281 59.5002C467.987 59.5002 469.487 59.2321 470.779 58.6961C472.072 58.1588 473.137 57.4641 473.976 56.6121C474.817 55.7588 475.401 54.8374 475.732 53.8468L475.815 53.5575H485.388L485.304 54.0121C484.948 55.6908 484.287 57.3335 483.325 58.9428C482.361 60.5535 481.068 62.0041 479.445 63.2974C477.823 64.5908 475.896 65.6148 473.669 66.3722C471.44 67.1282 468.908 67.5068 466.075 67.5068C461.7 67.5068 457.937 66.5855 454.788 64.7415Z" fill="#fff"/>
<path d="M492.404 22.8962H502.639V29.7468H502.885C504.013 27.3802 505.699 25.4961 507.94 24.0921C510.183 22.6895 512.955 21.9881 516.257 21.9881C521.071 21.9881 524.792 23.4468 527.42 26.3628C530.045 29.2788 531.361 33.2681 531.361 38.3294V66.6401H521.085V40.3935C521.085 37.2855 520.356 34.8841 518.897 33.1921C517.439 31.5001 515.252 30.6548 512.336 30.6548C510.381 30.6548 508.676 31.1015 507.219 31.9948C505.761 32.8895 504.633 34.1281 503.835 35.7095C503.037 37.2921 502.639 39.1415 502.639 41.2602V66.6401H492.404V22.8962Z" fill="#fff"/>
<path d="M545.66 64.5351C543.445 62.5537 542.337 59.3084 542.337 54.7964V30.8191H536.147V22.8964H542.337V11.7951H552.779V22.8964H560.908V30.8191H552.779V53.971C552.779 56.0897 553.252 57.5551 554.201 58.3657C555.151 59.1777 556.547 59.5831 558.391 59.5831C558.912 59.5831 559.373 59.5631 559.773 59.5217C560.172 59.4804 560.551 59.4457 560.908 59.4177V67.1351C560.301 67.2178 559.567 67.3004 558.7 67.3831C557.833 67.4657 556.863 67.5071 555.791 67.5071C551.251 67.5071 547.873 66.5164 545.66 64.5351Z" fill="#fff"/>
<path d="M575.208 65.8147C572.497 64.6867 570.38 63.0974 568.852 61.0481C567.325 58.9987 566.397 56.6254 566.068 53.9294L566.025 53.5574H576.136L576.219 53.9294C576.604 55.8281 577.519 57.3 578.963 58.3453C580.407 59.3907 582.436 59.9134 585.051 59.9134C586.728 59.9134 588.159 59.7067 589.343 59.2947C590.524 58.8814 591.44 58.2761 592.085 57.4787C592.733 56.6814 593.056 55.7454 593.056 54.6721V54.6307C593.056 53.3387 592.616 52.2853 591.736 51.4733C590.855 50.6627 589.273 49.9947 586.989 49.472L579.727 47.8627C575.544 46.9547 572.403 45.4694 570.296 43.4067C568.192 41.3427 567.14 38.688 567.14 35.4414V35.4C567.14 32.732 567.868 30.3934 569.327 28.3841C570.785 26.3761 572.835 24.8081 575.476 23.6801C578.117 22.5521 581.184 21.9881 584.679 21.9881C588.309 21.9881 591.419 22.5934 594.005 23.8041C596.591 25.0147 598.592 26.6374 600.011 28.6734C601.427 30.7094 602.189 32.9934 602.3 35.524L602.341 35.9773H592.767L592.727 35.6481C592.505 33.8867 591.708 32.436 590.332 31.2933C588.957 30.152 587.072 29.5813 584.679 29.5813C583.165 29.5813 581.851 29.8014 580.737 30.2414C579.624 30.6814 578.771 31.3013 578.18 32.0987C577.587 32.8973 577.291 33.8321 577.291 34.9054V34.9467C577.291 36.1841 577.767 37.2307 578.716 38.0827C579.665 38.9361 581.267 39.6241 583.523 40.1454L590.787 41.7561C595.325 42.7734 598.559 44.2253 600.484 46.1093C602.409 47.9947 603.373 50.5187 603.373 53.6814V53.7227C603.373 56.4747 602.588 58.888 601.02 60.9654C599.453 63.0427 597.287 64.652 594.52 65.7933C591.756 66.9347 588.584 67.5067 585.009 67.5067C581.184 67.5067 577.917 66.9427 575.208 65.8147Z" fill="#fff"/>
<path d="M287.015 90.0382H269.187V81.0835H315.407V90.0382H297.621V140.633H287.015V90.0382Z" fill="#fff"/>
<path d="M319.348 138.734C316.197 136.891 313.783 134.277 312.105 130.893C310.427 127.51 309.588 123.506 309.588 118.885V118.843C309.588 114.249 310.433 110.238 312.125 106.814C313.819 103.389 316.197 100.726 319.265 98.8287C322.332 96.9301 325.957 95.9807 330.139 95.9807C334.293 95.9807 337.891 96.8954 340.931 98.7247C343.971 100.555 346.309 103.121 347.947 106.422C349.583 109.723 350.403 113.575 350.403 117.977V121.278H314.664V114.427H345.491L340.539 120.823V116.862C340.539 114.001 340.099 111.621 339.219 109.723C338.337 107.825 337.127 106.401 335.587 105.451C334.045 104.502 332.271 104.027 330.264 104.027C328.227 104.027 326.419 104.517 324.836 105.493C323.255 106.47 322.016 107.921 321.123 109.847C320.228 111.773 319.781 114.111 319.781 116.862V120.823C319.781 123.493 320.228 125.77 321.123 127.654C322.016 129.538 323.289 130.983 324.94 131.987C326.591 132.991 328.557 133.493 330.841 133.493C332.547 133.493 334.045 133.225 335.339 132.689C336.632 132.151 337.697 131.457 338.537 130.605C339.376 129.751 339.961 128.83 340.292 127.839L340.375 127.55H349.948L349.865 128.005C349.508 129.683 348.848 131.326 347.884 132.935C346.921 134.546 345.628 135.997 344.005 137.29C342.381 138.583 340.456 139.607 338.228 140.365C335.999 141.121 333.468 141.499 330.635 141.499C326.26 141.499 322.497 140.578 319.348 138.734Z" fill="#fff"/>
<path d="M365.052 138.734C361.888 136.891 359.446 134.263 357.726 130.851C356.008 127.441 355.148 123.397 355.148 118.719V118.678C355.148 114.029 356.014 110.005 357.748 106.607C359.481 103.21 361.922 100.589 365.073 98.7461C368.222 96.9021 371.916 95.9807 376.153 95.9807C380.005 95.9807 383.333 96.7167 386.14 98.1887C388.946 99.6607 391.146 101.607 392.742 104.027C394.338 106.449 395.246 109.118 395.466 112.034V112.322H385.809L385.728 111.993C385.314 109.874 384.317 108.066 382.736 106.566C381.153 105.067 379 104.317 376.277 104.317C374.132 104.317 372.253 104.902 370.644 106.07C369.034 107.241 367.789 108.898 366.909 111.043C366.028 113.19 365.589 115.762 365.589 118.761V118.802C365.589 121.829 366.036 124.414 366.93 126.561C367.824 128.706 369.076 130.35 370.685 131.491C372.294 132.634 374.172 133.205 376.318 133.205C378.932 133.205 381.044 132.497 382.653 131.079C384.262 129.662 385.301 127.813 385.769 125.529L385.852 125.157H395.549L395.508 125.446C395.232 128.473 394.27 131.197 392.618 133.617C390.968 136.038 388.753 137.957 385.974 139.374C383.196 140.79 379.964 141.499 376.277 141.499C371.957 141.499 368.216 140.578 365.052 138.734Z" fill="#fff"/>
<path d="M402.502 81.0831H412.778V104.235H412.985C414.14 101.594 415.866 99.5577 418.164 98.1271C420.461 96.6964 423.233 95.9804 426.478 95.9804C429.642 95.9804 432.381 96.7031 434.692 98.1471C437.003 99.5911 438.791 101.614 440.057 104.214C441.321 106.814 441.955 109.875 441.955 113.396V140.632H431.678V115.418C431.678 112.062 430.866 109.427 429.244 107.515C427.62 105.603 425.337 104.647 422.393 104.647C420.468 104.647 418.782 105.108 417.338 106.03C415.893 106.951 414.773 108.216 413.974 109.826C413.177 111.435 412.778 113.299 412.778 115.418V140.632H402.502V81.0831Z" fill="#fff"/>
<path d="M449.652 96.8887H459.887V103.739H460.133C461.261 101.373 462.947 99.4887 465.189 98.0847C467.429 96.682 470.201 95.9807 473.504 95.9807C478.317 95.9807 482.041 97.4393 484.668 100.355C487.293 103.271 488.608 107.261 488.608 112.322V140.633H478.332V114.386C478.332 111.278 477.603 108.877 476.145 107.185C474.685 105.493 472.499 104.647 469.584 104.647C467.631 104.647 465.925 105.094 464.467 105.987C463.008 106.882 461.88 108.121 461.083 109.702C460.285 111.285 459.887 113.134 459.887 115.253V140.633H449.652V96.8887Z" fill="#fff"/>
<path d="M521.871 131.512C523.465 130.384 524.697 128.74 525.564 126.58C526.431 124.422 526.864 121.815 526.864 118.76V118.678C526.864 115.652 526.424 113.066 525.544 110.919C524.663 108.774 523.417 107.138 521.808 106.008C520.199 104.88 518.307 104.316 516.133 104.316C514.015 104.316 512.152 104.88 510.543 106.008C508.933 107.138 507.68 108.774 506.787 110.919C505.893 113.066 505.447 115.652 505.447 118.678V118.76C505.447 121.815 505.893 124.422 506.787 126.58C507.68 128.74 508.933 130.384 510.543 131.512C512.152 132.64 514.043 133.204 516.217 133.204C518.391 133.204 520.275 132.64 521.871 131.512ZM504.992 138.755C501.828 136.926 499.372 134.312 497.625 130.914C495.879 127.516 495.005 123.466 495.005 118.76V118.678C495.005 114.002 495.885 109.964 497.647 106.566C499.407 103.168 501.869 100.555 505.033 98.7243C508.196 96.895 511.897 95.9803 516.133 95.9803C520.399 95.9803 524.12 96.895 527.297 98.7243C530.475 100.555 532.944 103.162 534.705 106.546C536.465 109.93 537.345 113.974 537.345 118.678V118.76C537.345 123.492 536.472 127.558 534.725 130.955C532.977 134.354 530.523 136.959 527.359 138.775C524.195 140.591 520.467 141.499 516.176 141.499C511.884 141.499 508.156 140.584 504.992 138.755Z" fill="#fff"/>
<path d="M544.196 140.632H554.471V81.0827H544.196V140.632Z" fill="#fff"/>
<path d="M588.229 131.512C589.824 130.384 591.056 128.74 591.923 126.58C592.789 124.422 593.223 121.815 593.223 118.76V118.678C593.223 115.652 592.783 113.066 591.903 110.919C591.021 108.774 589.776 107.138 588.167 106.008C586.557 104.88 584.665 104.316 582.492 104.316C580.373 104.316 578.511 104.88 576.901 106.008C575.292 107.138 574.039 108.774 573.145 110.919C572.252 113.066 571.805 115.652 571.805 118.678V118.76C571.805 121.815 572.252 124.422 573.145 126.58C574.039 128.74 575.292 130.384 576.901 131.512C578.511 132.64 580.401 133.204 582.576 133.204C584.749 133.204 586.633 132.64 588.229 131.512ZM571.351 138.755C568.187 136.926 565.731 134.312 563.984 130.914C562.237 127.516 561.364 123.466 561.364 118.76V118.678C561.364 114.002 562.244 109.964 564.005 106.566C565.765 103.168 568.228 100.555 571.392 98.7243C574.555 96.895 578.256 95.9803 582.492 95.9803C586.757 95.9803 590.479 96.895 593.656 98.7243C596.833 100.555 599.303 103.162 601.064 106.546C602.824 109.93 603.704 113.974 603.704 118.678V118.76C603.704 123.492 602.831 127.558 601.084 130.955C599.336 134.354 596.881 136.959 593.717 138.775C590.553 140.591 586.825 141.499 582.535 141.499C578.243 141.499 574.515 140.584 571.351 138.755Z" fill="#fff"/>
<path d="M635.316 130.749C636.911 129.607 638.156 127.991 639.051 125.899C639.945 123.809 640.392 121.361 640.392 118.554V118.513C640.392 115.679 639.939 113.225 639.029 111.146C638.121 109.07 636.869 107.467 635.275 106.339C633.679 105.211 631.821 104.647 629.704 104.647C627.503 104.647 625.591 105.211 623.967 106.339C622.344 107.467 621.092 109.062 620.212 111.126C619.331 113.19 618.892 115.651 618.892 118.513V118.554C618.892 121.415 619.331 123.885 620.212 125.962C621.092 128.039 622.344 129.642 623.967 130.77C625.591 131.898 627.503 132.462 629.704 132.462C631.849 132.462 633.72 131.891 635.316 130.749ZM619.901 154.354C617.027 153.294 614.736 151.843 613.031 150.001C611.325 148.157 610.267 146.094 609.853 143.81L609.771 143.439H619.841L620.005 143.769C620.556 145.034 621.689 146.086 623.409 146.926C625.128 147.765 627.309 148.185 629.952 148.185C633.307 148.185 635.88 147.359 637.668 145.709C639.456 144.058 640.349 141.843 640.349 139.065V132.75H640.144C639.345 134.318 638.28 135.666 636.947 136.794C635.612 137.923 634.057 138.803 632.283 139.435C630.509 140.069 628.575 140.385 626.484 140.385C622.825 140.385 619.64 139.491 616.931 137.702C614.221 135.914 612.129 133.377 610.659 130.089C609.185 126.802 608.451 122.887 608.451 118.347V118.306C608.451 113.685 609.2 109.717 610.7 106.401C612.199 103.086 614.311 100.521 617.035 98.7047C619.757 96.8887 622.963 95.9807 626.649 95.9807C628.713 95.9807 630.612 96.3313 632.344 97.0327C634.077 97.734 635.597 98.7047 636.904 99.942C638.211 101.181 639.277 102.639 640.103 104.317H640.349V96.8887H650.625V139.394C650.625 142.695 649.787 145.591 648.109 148.082C646.431 150.571 644.051 152.503 640.969 153.879C637.888 155.255 634.229 155.943 629.992 155.943C626.14 155.943 622.777 155.413 619.901 154.354Z" fill="#fff"/>
<path d="M659.292 96.8893H669.567V140.633H659.292V96.8893ZM660.365 88.9654C659.264 87.8654 658.715 86.544 658.715 85.0027C658.715 83.4347 659.264 82.108 660.365 81.0213C661.464 79.9347 662.813 79.3907 664.409 79.3907C666.032 79.3907 667.395 79.9347 668.495 81.0213C669.595 82.108 670.145 83.4347 670.145 85.0027C670.145 86.544 669.595 87.8654 668.495 88.9654C667.395 90.0654 666.032 90.616 664.409 90.616C662.813 90.616 661.464 90.0654 660.365 88.9654Z" fill="#fff"/>
<path d="M686.22 138.734C683.069 136.891 680.655 134.277 678.977 130.893C677.3 127.51 676.46 123.506 676.46 118.885V118.843C676.46 114.249 677.305 110.238 678.997 106.814C680.691 103.389 683.069 100.726 686.137 98.8287C689.204 96.9301 692.829 95.9807 697.012 95.9807C701.165 95.9807 704.763 96.8954 707.803 98.7247C710.843 100.555 713.181 103.121 714.819 106.422C716.455 109.723 717.273 113.575 717.273 117.977V121.278H681.536V114.427H712.363L707.412 120.823V116.862C707.412 114.001 706.971 111.621 706.089 109.723C705.209 107.825 703.999 106.401 702.459 105.451C700.917 104.502 699.143 104.027 697.136 104.027C695.099 104.027 693.291 104.517 691.708 105.493C690.127 106.47 688.888 107.921 687.995 109.847C687.1 111.773 686.653 114.111 686.653 116.862V120.823C686.653 123.493 687.1 125.77 687.995 127.654C688.888 129.538 690.161 130.983 691.811 131.987C693.463 132.991 695.428 133.493 697.713 133.493C699.417 133.493 700.917 133.225 702.211 132.689C703.504 132.151 704.571 131.457 705.409 130.605C706.248 129.751 706.833 128.83 707.163 127.839L707.247 127.55H716.82L716.737 128.005C716.379 129.683 715.719 131.326 714.756 132.935C713.793 134.546 712.5 135.997 710.877 137.29C709.253 138.583 707.328 139.607 705.1 140.365C702.871 141.121 700.34 141.499 697.507 141.499C693.133 141.499 689.369 140.578 686.22 138.734Z" fill="#fff"/>
<path d="M731.12 139.807C728.409 138.679 726.292 137.09 724.764 135.041C723.237 132.991 722.309 130.618 721.98 127.922L721.937 127.55H732.048L732.131 127.922C732.516 129.821 733.431 131.293 734.875 132.338C736.319 133.383 738.348 133.906 740.963 133.906C742.64 133.906 744.071 133.699 745.255 133.287C746.436 132.874 747.352 132.269 747.997 131.471C748.645 130.674 748.968 129.738 748.968 128.665V128.623C748.968 127.331 748.528 126.278 747.648 125.466C746.767 124.655 745.185 123.987 742.901 123.465L735.639 121.855C731.456 120.947 728.315 119.462 726.208 117.399C724.104 115.335 723.052 112.681 723.052 109.434V109.393C723.052 106.725 723.78 104.386 725.239 102.378C726.697 100.369 728.747 98.8005 731.388 97.6725C734.029 96.5445 737.096 95.9806 740.591 95.9806C744.221 95.9806 747.331 96.5859 749.917 97.7966C752.503 99.0072 754.504 100.63 755.923 102.666C757.339 104.702 758.101 106.986 758.212 109.517L758.253 109.97H748.679L748.639 109.641C748.417 107.879 747.62 106.429 746.244 105.286C744.869 104.145 742.984 103.574 740.591 103.574C739.077 103.574 737.763 103.795 736.649 104.234C735.536 104.674 734.683 105.294 734.092 106.091C733.499 106.89 733.203 107.825 733.203 108.898V108.939C733.203 110.177 733.679 111.223 734.628 112.075C735.577 112.929 737.179 113.617 739.435 114.138L746.699 115.749C751.237 116.766 754.471 118.218 756.396 120.102C758.321 121.987 759.285 124.511 759.285 127.674V127.715C759.285 130.467 758.5 132.881 756.932 134.958C755.365 137.035 753.199 138.645 750.432 139.786C747.668 140.927 744.496 141.499 740.921 141.499C737.096 141.499 733.829 140.935 731.12 139.807Z" fill="#fff"/>
</svg>
