<svg fill="none" height="156" viewBox="0 0 760 156" width="760" xmlns="http://www.w3.org/2000/svg"><g fill="#fff"><path d="m162.129.0573711h-10.8c-.332 0-.6.2679349-.6.5999349v5.400064 12.00003 12 12 9c0 1.6573-1.344 3-3 3h-9-9.7-2.3-11.414c-.33 0-.6.2679-.6.5999v10.8001c0 .332.27.6.6.6h11.414 2.3 9.7 12 6c3.313 0 6-2.6867 6-6v-6-12-12-12-12.00003-5.400064c0-.332-.268-.5999349-.6-.5999349z"/><path d="m240.129 54.0574h-5.4-12-12-12-9c-1.658 0-3-1.3427-3-3v-9-12-6-5.4001c0-.332-.268-.5999-.6-.5999h-10.8c-.332 0-.6.2679-.6.5999v5.4001 6 12 12 6c0 3.3133 2.686 6 6 6h6 12 12 12 12 5.4c.332 0 .6-.268.6-.6v-10.8001c0-.332-.268-.5999-.6-.5999z"/><path d="m48.7119 54.0576h1.4533 10.5627 12 12 12 5.4011c.331 0 .599.268.599.6v10.8c0 .3307-.268.6-.599.6h-5.4011-12-12-12-10.5627-1.4373-.0134c-19.7053 0-35.7026 15.8347-35.9866 35.4724v.528h-.0134v12h.0134v12 12 5.4c0 .33-.268.6-.5986.6h-10.8014c-.330665 0-.600015-.27-.600015-.6v-5.4-12-12h-.013346v-12h.013346v-.522c.042667-3.9584.554665-7.8051 1.499995-11.4784 1.096-4.26 2.77471-8.284 4.92538-12 1.60267-2.7693 3.47064-5.364 5.57464-7.748 1.3293-1.504 2.7493-2.924 4.2546-4.252 2.384-2.1027 4.9774-3.9694 7.7454-5.5707 3.716-2.1493 7.74-3.8253 12-4.92 3.8306-.9853 7.8453-1.5093 11.984-1.5093h.016z"/><path d="m222.129 78.0574h-5.387-.013-5.987-12-12-6c-3.313 0-6 2.6867-6 6v6 11.9996 12 12 12 5.4c0 .332.268.6.6.6h10.8c.331 0 .6-.268.6-.6v-5.4-12-12-12-9.1317c.071-1.5946 1.375-2.8679 2.987-2.8679h9.013 12 5.987.013 5.387c.332 0 .6-.268.6-.6v-10.8c0-.332-.268-.6-.6-.6z"/><path d="m156.715 78.0574h-6-12-12-12-12-5.3998c-.3306 0-.6.268-.6.6v10.8c0 .332.2694.6.6.6h5.3998 12 12 12 9.014c1.61 0 2.916 1.2733 2.986 2.8666v9.133 12 6 5.4c0 .332.27.6.6.6h10.8c.331 0 .6-.268.6-.6v-5.4-6-12-11.9996-6c0-3.3133-2.686-6-6-6z"/><path d="m36.7152 123.871v-9.814-12c0-6.6255 5.3694-11.9962 11.996-11.9989h.004l12-.0013h12 11.4001c.332 0 .5999-.2679.5999-.5986v-10.8014c0-.3306-.2679-.6-.5999-.6h-11.4001-12-12c-4.3733 0-8.4693 1.176-12 3.22-3.64 2.1067-6.6747 5.14-8.7813 8.7813-2.044 3.5307-3.2187 7.6267-3.2187 11.9999v11.999 9.814l.0134 2.187c0 4.372 1.176 8.468 3.2186 12 2.104 3.636 5.1333 6.667 8.768 8.773.004.003.0094.006.0134.008 3.5266 2.04 7.6186 3.215 11.9866 3.218v.001h.0134c-.0014 0-.0027 0-.004-.001h11.9906 12 11.4001c.332 0 .5999-.268.5999-.599v-10.801c0-.331-.2679-.6-.5999-.6h-11.4001-12-12c-6.6267 0-12-5.372-12-12v.001z"/><path d="m277.831 63.9163c-4.196-2.5027-7.428-6.0587-9.697-10.668-2.271-4.608-3.405-10.0761-3.405-16.4041v-.0413c0-6.3267 1.141-11.788 3.425-16.3826 2.283-4.5947 5.516-8.136 9.697-10.62668 4.182-2.48933 9.12-3.7347 14.816-3.7347 4.567 0 8.659.88003 12.276 2.64136 3.619 1.76002 6.57 4.19462 8.854 7.30392 2.282 3.1094 3.685 6.6854 4.208 10.7294l.042.4134h-10.441l-.207-.784c-.577-2.284-1.526-4.2507-2.846-5.9014-1.322-1.6507-2.987-2.9306-4.995-3.8386s-4.305-1.3614-6.891-1.3614c-3.466 0-6.478.88-9.037 2.6413s-4.54 4.244-5.943 7.448c-1.404 3.2053-2.105 7.0227-2.105 11.452v.0413c0 4.4027.701 8.2201 2.105 11.4521 1.403 3.2333 3.391 5.736 5.963 7.5107 2.572 1.7746 5.577 2.6626 9.017 2.6626 2.531 0 4.794-.448 6.788-1.3426 1.995-.8934 3.68-2.1934 5.056-3.8987 1.375-1.7054 2.379-3.7827 3.012-6.232l.124-.4134h10.44l-.082.4547c-.495 4.044-1.884 7.6213-4.168 10.7293-2.283 3.1094-5.24 5.5374-8.872 7.284-3.632 1.7467-7.731 2.62-12.298 2.62-5.696 0-10.641-1.2506-14.836-3.7546z"/><path d="m350.154 57.5197c1.594-1.128 2.826-2.7719 3.693-4.9319.867-2.1587 1.3-4.7654 1.3-7.82v-.0827c0-3.0253-.44-5.612-1.321-7.7586-.88-2.1454-2.124-3.7814-3.734-4.9108-1.609-1.128-3.501-1.6919-5.674-1.6919-2.12 0-3.983.5639-5.592 1.6919-1.61 1.1294-2.863 2.7654-3.756 4.9108-.894 2.1466-1.34 4.7333-1.34 7.7586v.0827c0 3.0546.446 5.6613 1.34 7.82.893 2.16 2.146 3.8039 3.756 4.9319 1.609 1.128 3.5 1.6921 5.674 1.6921 2.172 0 4.058-.5641 5.654-1.6921zm-16.879 7.2427c-3.164-1.8293-5.62-4.4426-7.367-7.8413-1.746-3.3973-2.62-7.448-2.62-12.1533v-.0827c0-4.676.88-8.7133 2.642-12.112 1.76-3.3973 4.222-6.0106 7.386-7.8413 3.164-1.8293 6.864-2.744 11.102-2.744 4.264 0 7.985.9147 11.162 2.744 3.178 1.8307 5.647 4.4373 7.407 7.8213 1.761 3.384 2.641 7.428 2.641 12.132v.0827c0 4.732-.873 8.7973-2.62 12.1946-1.746 3.3987-4.202 6.004-7.366 7.82s-6.891 2.7241-11.183 2.7241-8.021-.9148-11.184-2.7441z"/><path d="m372.191 22.8962h10.234v6.8506h.247c1.128-2.3666 2.813-4.2507 5.056-5.6547 2.241-1.4026 5.013-2.104 8.315-2.104 4.814 0 8.536 1.4587 11.164 4.3747 2.626 2.916 3.94 6.9053 3.94 11.9666v28.3107h-10.275v-26.2466c0-3.108-.729-5.5094-2.188-7.2014s-3.645-2.5373-6.561-2.5373c-1.954 0-3.659.4467-5.118 1.34-1.458.8947-2.586 2.1333-3.384 3.7147-.797 1.5826-1.196 3.432-1.196 5.5507v25.3799h-10.234z"/><path d="m425.447 64.5351c-2.215-1.9814-3.323-5.2267-3.323-9.7387v-23.9773h-6.189v-7.9227h6.189v-11.1013h10.441v11.1013h8.131v7.9227h-8.131v23.1519c0 2.1187.475 3.5841 1.424 4.3947.95.812 2.346 1.2174 4.188 1.2174.523 0 .984-.02 1.383-.0614.399-.0413.777-.076 1.136-.104v7.7174c-.607.0827-1.341.1653-2.208.248-.868.0826-1.837.124-2.909.124-4.54 0-7.918-.9907-10.132-2.972z"/><path d="m454.788 64.7415c-3.151-1.8427-5.565-4.4574-7.243-7.8414-1.678-3.3826-2.517-7.3866-2.517-12.0079v-.0414c0-4.5946.845-8.6053 2.537-12.0293 1.694-3.4254 4.072-6.0881 7.14-7.9854 3.067-1.8987 6.692-2.848 10.874-2.848 4.156 0 7.752.9147 10.793 2.744 3.039 1.8307 5.377 4.396 7.016 7.6973 1.635 3.3014 2.453 7.1534 2.453 11.5547v3.3014h-35.737v-6.8507h30.828l-4.953 6.396v-3.9613c0-2.8614-.44-5.2414-1.32-7.1387-.88-1.8987-2.091-3.3226-3.634-4.272-1.538-.9493-3.314-1.424-5.321-1.424-2.037 0-3.845.4894-5.428 1.4654-1.581.9773-2.82 2.4279-3.713 4.3532-.895 1.9267-1.342 4.2654-1.342 7.0161v3.9613c0 2.6693.447 4.9467 1.342 6.8307.893 1.884 2.166 3.3293 3.817 4.3333s3.617 1.5054 5.901 1.5054c1.706 0 3.206-.2681 4.498-.8041 1.293-.5373 2.358-1.232 3.197-2.084.841-.8533 1.425-1.7747 1.756-2.7653l.083-.2893h9.573l-.084.4546c-.356 1.6787-1.017 3.3214-1.979 4.9307-.964 1.6107-2.257 3.0613-3.88 4.3546-1.622 1.2934-3.549 2.3174-5.776 3.0748-2.229.756-4.761 1.1346-7.594 1.1346-4.375 0-8.138-.9213-11.287-2.7653z"/><path d="m492.404 22.8962h10.235v6.8506h.246c1.128-2.3666 2.814-4.2507 5.055-5.6547 2.243-1.4026 5.015-2.104 8.317-2.104 4.814 0 8.535 1.4587 11.163 4.3747 2.625 2.916 3.941 6.9053 3.941 11.9666v28.3107h-10.276v-26.2466c0-3.108-.729-5.5094-2.188-7.2014-1.458-1.692-3.645-2.5373-6.561-2.5373-1.955 0-3.66.4467-5.117 1.34-1.458.8947-2.586 2.1333-3.384 3.7147-.798 1.5826-1.196 3.432-1.196 5.5507v25.3799h-10.235z"/><path d="m545.66 64.5351c-2.215-1.9814-3.323-5.2267-3.323-9.7387v-23.9773h-6.19v-7.9227h6.19v-11.1013h10.442v11.1013h8.129v7.9227h-8.129v23.1519c0 2.1187.473 3.5841 1.422 4.3947.95.812 2.346 1.2174 4.19 1.2174.521 0 .982-.02 1.382-.0614.399-.0413.778-.076 1.135-.104v7.7174c-.607.0827-1.341.1653-2.208.248-.867.0826-1.837.124-2.909.124-4.54 0-7.918-.9907-10.131-2.972z"/><path d="m575.208 65.8147c-2.711-1.128-4.828-2.7173-6.356-4.7666-1.527-2.0494-2.455-4.4227-2.784-7.1187l-.043-.372h10.111l.083.372c.385 1.8987 1.3 3.3706 2.744 4.4159 1.444 1.0454 3.473 1.5681 6.088 1.5681 1.677 0 3.108-.2067 4.292-.6187 1.181-.4133 2.097-1.0186 2.742-1.816.648-.7973.971-1.7333.971-2.8066v-.0414c0-1.292-.44-2.3454-1.32-3.1574-.881-.8106-2.463-1.4786-4.747-2.0013l-7.262-1.6093c-4.183-.908-7.324-2.3933-9.431-4.456-2.104-2.064-3.156-4.7187-3.156-7.9653v-.0414c0-2.668.728-5.0066 2.187-7.0159 1.458-2.008 3.508-3.576 6.149-4.704s5.708-1.692 9.203-1.692c3.63 0 6.74.6053 9.326 1.816 2.586 1.2106 4.587 2.8333 6.006 4.8693 1.416 2.036 2.178 4.32 2.289 6.8506l.041.4533h-9.574l-.04-.3292c-.222-1.7614-1.019-3.2121-2.395-4.3548-1.375-1.1413-3.26-1.712-5.653-1.712-1.514 0-2.828.2201-3.942.6601-1.113.44-1.966 1.0599-2.557 1.8573-.593.7986-.889 1.7334-.889 2.8067v.0413c0 1.2374.476 2.284 1.425 3.136.949.8534 2.551 1.5414 4.807 2.0627l7.264 1.6107c4.538 1.0173 7.772 2.4692 9.697 4.3532 1.925 1.8854 2.889 4.4094 2.889 7.5721v.0413c0 2.752-.785 5.1653-2.353 7.2427-1.567 2.0773-3.733 3.6866-6.5 4.8279-2.764 1.1414-5.936 1.7134-9.511 1.7134-3.825 0-7.092-.564-9.801-1.692z"/><path d="m287.015 90.0382h-17.828v-8.9547h46.22v8.9547h-17.786v50.5948h-10.606z"/><path d="m319.348 138.734c-3.151-1.843-5.565-4.457-7.243-7.841-1.678-3.383-2.517-7.387-2.517-12.008v-.042c0-4.594.845-8.605 2.537-12.029 1.694-3.425 4.072-6.088 7.14-7.9853 3.067-1.8986 6.692-2.848 10.874-2.848 4.154 0 7.752.9147 10.792 2.744 3.04 1.8303 5.378 4.3963 7.016 7.6973 1.636 3.301 2.456 7.153 2.456 11.555v3.301h-35.739v-6.851h30.827l-4.952 6.396v-3.961c0-2.861-.44-5.241-1.32-7.139-.882-1.898-2.092-3.322-3.632-4.272-1.542-.949-3.316-1.424-5.323-1.424-2.037 0-3.845.49-5.428 1.466-1.581.977-2.82 2.428-3.713 4.354-.895 1.926-1.342 4.264-1.342 7.015v3.961c0 2.67.447 4.947 1.342 6.831.893 1.884 2.166 3.329 3.817 4.333s3.617 1.506 5.901 1.506c1.706 0 3.204-.268 4.498-.804 1.293-.538 2.358-1.232 3.198-2.084.839-.854 1.424-1.775 1.755-2.766l.083-.289h9.573l-.083.455c-.357 1.678-1.017 3.321-1.981 4.93-.963 1.611-2.256 3.062-3.879 4.355-1.624 1.293-3.549 2.317-5.777 3.075-2.229.756-4.76 1.134-7.593 1.134-4.375 0-8.138-.921-11.287-2.765z"/><path d="m365.052 138.734c-3.164-1.843-5.606-4.471-7.326-7.883-1.718-3.41-2.578-7.454-2.578-12.132v-.041c0-4.649.866-8.673 2.6-12.071 1.733-3.397 4.174-6.018 7.325-7.8609 3.149-1.844 6.843-2.7654 11.08-2.7654 3.852 0 7.18.736 9.987 2.208 2.806 1.472 5.006 3.4183 6.602 5.8383 1.596 2.422 2.504 5.091 2.724 8.007v.288h-9.657l-.081-.329c-.414-2.119-1.411-3.927-2.992-5.427-1.583-1.499-3.736-2.249-6.459-2.249-2.145 0-4.024.585-5.633 1.753-1.61 1.171-2.855 2.828-3.735 4.973-.881 2.147-1.32 4.719-1.32 7.718v.041c0 3.027.447 5.612 1.341 7.759.894 2.145 2.146 3.789 3.755 4.93 1.609 1.143 3.487 1.714 5.633 1.714 2.614 0 4.726-.708 6.335-2.126 1.609-1.417 2.648-3.266 3.116-5.55l.083-.372h9.697l-.041.289c-.276 3.027-1.238 5.751-2.89 8.171-1.65 2.421-3.865 4.34-6.644 5.757-2.778 1.416-6.01 2.125-9.697 2.125-4.32 0-8.061-.921-11.225-2.765z"/><path d="m402.502 81.0831h10.276v23.1519h.207c1.155-2.641 2.881-4.6773 5.179-6.1079 2.297-1.4307 5.069-2.1467 8.314-2.1467 3.164 0 5.903.7227 8.214 2.1667s4.099 3.4669 5.365 6.0669c1.264 2.6 1.898 5.661 1.898 9.182v27.236h-10.277v-25.214c0-3.356-.812-5.991-2.434-7.903-1.624-1.912-3.907-2.868-6.851-2.868-1.925 0-3.611.461-5.055 1.383-1.445.921-2.565 2.186-3.364 3.796-.797 1.609-1.196 3.473-1.196 5.592v25.214h-10.276z"/><path d="m449.652 96.8887h10.235v6.8503h.246c1.128-2.366 2.814-4.2503 5.056-5.6543 2.24-1.4027 5.012-2.104 8.315-2.104 4.813 0 8.537 1.4586 11.164 4.3743 2.625 2.916 3.94 6.906 3.94 11.967v28.311h-10.276v-26.247c0-3.108-.729-5.509-2.187-7.201-1.46-1.692-3.646-2.538-6.561-2.538-1.953 0-3.659.447-5.117 1.34-1.459.895-2.587 2.134-3.384 3.715-.798 1.583-1.196 3.432-1.196 5.551v25.38h-10.235z"/><path d="m521.871 131.512c1.594-1.128 2.826-2.772 3.693-4.932.867-2.158 1.3-4.765 1.3-7.82v-.082c0-3.026-.44-5.612-1.32-7.759-.881-2.145-2.127-3.781-3.736-4.911-1.609-1.128-3.501-1.692-5.675-1.692-2.118 0-3.981.564-5.59 1.692-1.61 1.13-2.863 2.766-3.756 4.911-.894 2.147-1.34 4.733-1.34 7.759v.082c0 3.055.446 5.662 1.34 7.82.893 2.16 2.146 3.804 3.756 4.932 1.609 1.128 3.5 1.692 5.674 1.692s4.058-.564 5.654-1.692zm-16.879 7.243c-3.164-1.829-5.62-4.443-7.367-7.841-1.746-3.398-2.62-7.448-2.62-12.154v-.082c0-4.676.88-8.714 2.642-12.112 1.76-3.398 4.222-6.011 7.386-7.8417 3.163-1.8293 6.864-2.744 11.1-2.744 4.266 0 7.987.9147 11.164 2.744 3.178 1.8307 5.647 4.4377 7.408 7.8217 1.76 3.384 2.64 7.428 2.64 12.132v.082c0 4.732-.873 8.798-2.62 12.195-1.748 3.399-4.202 6.004-7.366 7.82s-6.892 2.724-11.183 2.724c-4.292 0-8.02-.915-11.184-2.744z"/><path d="m544.196 140.632h10.275v-59.5493h-10.275z"/><path d="m588.229 131.512c1.595-1.128 2.827-2.772 3.694-4.932.866-2.158 1.3-4.765 1.3-7.82v-.082c0-3.026-.44-5.612-1.32-7.759-.882-2.145-2.127-3.781-3.736-4.911-1.61-1.128-3.502-1.692-5.675-1.692-2.119 0-3.981.564-5.591 1.692-1.609 1.13-2.862 2.766-3.756 4.911-.893 2.147-1.34 4.733-1.34 7.759v.082c0 3.055.447 5.662 1.34 7.82.894 2.16 2.147 3.804 3.756 4.932 1.61 1.128 3.5 1.692 5.675 1.692 2.173 0 4.057-.564 5.653-1.692zm-16.878 7.243c-3.164-1.829-5.62-4.443-7.367-7.841s-2.62-7.448-2.62-12.154v-.082c0-4.676.88-8.714 2.641-12.112 1.76-3.398 4.223-6.011 7.387-7.8417 3.163-1.8293 6.864-2.744 11.1-2.744 4.265 0 7.987.9147 11.164 2.744 3.177 1.8307 5.647 4.4377 7.408 7.8217 1.76 3.384 2.64 7.428 2.64 12.132v.082c0 4.732-.873 8.798-2.62 12.195-1.748 3.399-4.203 6.004-7.367 7.82s-6.892 2.724-11.182 2.724c-4.292 0-8.02-.915-11.184-2.744z"/><path d="m635.316 130.749c1.595-1.142 2.84-2.758 3.735-4.85.894-2.09 1.341-4.538 1.341-7.345v-.041c0-2.834-.453-5.288-1.363-7.367-.908-2.076-2.16-3.679-3.754-4.807-1.596-1.128-3.454-1.692-5.571-1.692-2.201 0-4.113.564-5.737 1.692-1.623 1.128-2.875 2.723-3.755 4.787-.881 2.064-1.32 4.525-1.32 7.387v.041c0 2.861.439 5.331 1.32 7.408.88 2.077 2.132 3.68 3.755 4.808 1.624 1.128 3.536 1.692 5.737 1.692 2.145 0 4.016-.571 5.612-1.713zm-15.415 23.605c-2.874-1.06-5.165-2.511-6.87-4.353-1.706-1.844-2.764-3.907-3.178-6.191l-.082-.371h10.07l.164.33c.551 1.265 1.684 2.317 3.404 3.157 1.719.839 3.9 1.259 6.543 1.259 3.355 0 5.928-.826 7.716-2.476 1.788-1.651 2.681-3.866 2.681-6.644v-6.315h-.205c-.799 1.568-1.864 2.916-3.197 4.044-1.335 1.129-2.89 2.009-4.664 2.641-1.774.634-3.708.95-5.799.95-3.659 0-6.844-.894-9.553-2.683-2.71-1.788-4.802-4.325-6.272-7.613-1.474-3.287-2.208-7.202-2.208-11.742v-.041c0-4.621.749-8.589 2.249-11.905 1.499-3.315 3.611-5.88 6.335-7.6963 2.722-1.816 5.928-2.724 9.614-2.724 2.064 0 3.963.3506 5.695 1.052 1.733.7013 3.253 1.672 4.56 2.9093 1.307 1.239 2.373 2.697 3.199 4.375h.246v-7.4283h10.276v42.5053c0 3.301-.838 6.197-2.516 8.688-1.678 2.489-4.058 4.421-7.14 5.797-3.081 1.376-6.74 2.064-10.977 2.064-3.852 0-7.215-.53-10.091-1.589z"/><path d="m659.292 96.8893h10.275v43.7437h-10.275zm1.073-7.9239c-1.101-1.1-1.65-2.4214-1.65-3.9627 0-1.568.549-2.8947 1.65-3.9814 1.099-1.0866 2.448-1.6306 4.044-1.6306 1.623 0 2.986.544 4.086 1.6306 1.1 1.0867 1.65 2.4134 1.65 3.9814 0 1.5413-.55 2.8627-1.65 3.9627s-2.463 1.6506-4.086 1.6506c-1.596 0-2.945-.5506-4.044-1.6506z"/><path d="m686.22 138.734c-3.151-1.843-5.565-4.457-7.243-7.841-1.677-3.383-2.517-7.387-2.517-12.008v-.042c0-4.594.845-8.605 2.537-12.029 1.694-3.425 4.072-6.088 7.14-7.9853 3.067-1.8986 6.692-2.848 10.875-2.848 4.153 0 7.751.9147 10.791 2.744 3.04 1.8303 5.378 4.3963 7.016 7.6973 1.636 3.301 2.454 7.153 2.454 11.555v3.301h-35.737v-6.851h30.827l-4.951 6.396v-3.961c0-2.861-.441-5.241-1.323-7.139-.88-1.898-2.09-3.322-3.63-4.272-1.542-.949-3.316-1.424-5.323-1.424-2.037 0-3.845.49-5.428 1.466-1.581.977-2.82 2.428-3.713 4.354-.895 1.926-1.342 4.264-1.342 7.015v3.961c0 2.67.447 4.947 1.342 6.831.893 1.884 2.166 3.329 3.816 4.333 1.652 1.004 3.617 1.506 5.902 1.506 1.704 0 3.204-.268 4.498-.804 1.293-.538 2.36-1.232 3.198-2.084.839-.854 1.424-1.775 1.754-2.766l.084-.289h9.573l-.083.455c-.358 1.678-1.018 3.321-1.981 4.93-.963 1.611-2.256 3.062-3.879 4.355-1.624 1.293-3.549 2.317-5.777 3.075-2.229.756-4.76 1.134-7.593 1.134-4.374 0-8.138-.921-11.287-2.765z"/><path d="m731.12 139.807c-2.711-1.128-4.828-2.717-6.356-4.766-1.527-2.05-2.455-4.423-2.784-7.119l-.043-.372h10.111l.083.372c.385 1.899 1.3 3.371 2.744 4.416s3.473 1.568 6.088 1.568c1.677 0 3.108-.207 4.292-.619 1.181-.413 2.097-1.018 2.742-1.816.648-.797.971-1.733.971-2.806v-.042c0-1.292-.44-2.345-1.32-3.157-.881-.811-2.463-1.479-4.747-2.001l-7.262-1.61c-4.183-.908-7.324-2.393-9.431-4.456-2.104-2.064-3.156-4.718-3.156-7.965v-.041c0-2.668.728-5.007 2.187-7.015 1.458-2.009 3.508-3.5775 6.149-4.7055s5.708-1.6919 9.203-1.6919c3.63 0 6.74.6053 9.326 1.816 2.586 1.2106 4.587 2.8334 6.006 4.8694 1.416 2.036 2.178 4.32 2.289 6.851l.041.453h-9.574l-.04-.329c-.222-1.762-1.019-3.212-2.395-4.355-1.375-1.141-3.26-1.712-5.653-1.712-1.514 0-2.828.221-3.942.66-1.113.44-1.966 1.06-2.557 1.857-.593.799-.889 1.734-.889 2.807v.041c0 1.238.476 2.284 1.425 3.136.949.854 2.551 1.542 4.807 2.063l7.264 1.611c4.538 1.017 7.772 2.469 9.697 4.353 1.925 1.885 2.889 4.409 2.889 7.572v.041c0 2.752-.785 5.166-2.353 7.243-1.567 2.077-3.733 3.687-6.5 4.828-2.764 1.141-5.936 1.713-9.511 1.713-3.825 0-7.092-.564-9.801-1.692z"/></g></svg>